<?xml version="1.0" encoding="utf-8"?>
<!-- Generator: Adobe Illustrator 25.3.0, SVG Export Plug-In . SVG Version: 6.00 Build 0)  -->
<svg version="1.1" id="Layer_1" xmlns="http://www.w3.org/2000/svg" xmlns:xlink="http://www.w3.org/1999/xlink" x="0px" y="0px"
	 viewBox="0 0 62.93 9.76" style="enable-background:new 0 0 62.93 9.76;" xml:space="preserve">
<style type="text/css">
	.st0{fill:#FFFFFF;}
</style>
<path class="st0" d="M28.3,6.71c0,1.03,0,2.03,0,3.05c-0.76,0-1.52,0-2.28,0c0-3.25,0-6.49,0-9.75c0.04,0,0.07-0.01,0.11-0.01
	c0.56,0,1.12,0,1.68,0c0.08,0,0.11,0.03,0.13,0.11c0.06,0.27,0.12,0.54,0.19,0.83c0.04-0.03,0.07-0.05,0.1-0.07
	c0.33-0.27,0.68-0.52,1.09-0.67c0.35-0.12,0.71-0.18,1.07-0.18c0.6-0.01,1.2-0.01,1.8,0c0.32,0,0.63,0.06,0.93,0.16
	c0.67,0.23,1.03,0.72,1.15,1.4c0.05,0.3,0.08,0.61,0.08,0.92c0.01,0.84,0.01,1.68,0,2.52c-0.01,0.35-0.04,0.71-0.11,1.05
	c-0.17,0.75-0.66,1.2-1.41,1.35c-0.24,0.05-0.49,0.08-0.73,0.09c-0.6,0.01-1.2,0-1.81-0.01c-0.69-0.01-1.31-0.25-1.84-0.68
	C28.39,6.78,28.36,6.75,28.3,6.71z M32.03,3.76C32.03,3.76,32.03,3.76,32.03,3.76c0-0.4,0.01-0.79,0-1.19
	c-0.01-0.41-0.19-0.62-0.54-0.7c-0.08-0.02-0.16-0.03-0.24-0.03c-0.46,0-0.91-0.01-1.37,0c-0.27,0.01-0.54,0.03-0.77,0.17
	c-0.27,0.16-0.52,0.35-0.78,0.53c-0.02,0.02-0.03,0.06-0.03,0.1c0,0.74,0,1.48,0,2.23c0,0.03,0.01,0.08,0.03,0.1
	c0.2,0.15,0.39,0.31,0.6,0.44c0.29,0.18,0.61,0.25,0.95,0.25c0.5,0.01,0.99,0.01,1.49-0.01c0.36-0.01,0.56-0.2,0.63-0.53
	c0.02-0.07,0.03-0.15,0.03-0.22C32.03,4.53,32.03,4.15,32.03,3.76z M17.87,4.13c-1.96,0-3.92,0-5.88,0
	c-0.01,0.02-0.02,0.03-0.02,0.04c0,0.28-0.01,0.57,0.02,0.85c0.04,0.48,0.27,0.69,0.75,0.7c0.32,0.01,0.64,0.01,0.96,0.01
	c0.44,0,0.87,0,1.31-0.01c0.41-0.01,0.6-0.18,0.65-0.59c0.01-0.12,0.01-0.25,0.02-0.38c0.73,0,1.46,0,2.19,0
	c0,0.19,0.01,0.37,0,0.55c-0.02,0.27-0.02,0.55-0.07,0.81c-0.16,0.79-0.64,1.23-1.45,1.35c-0.2,0.03-0.41,0.04-0.61,0.05
	c-1.19,0-2.37,0.01-3.56,0c-0.34,0-0.69-0.04-1.03-0.11c-0.79-0.17-1.24-0.7-1.37-1.48C9.72,5.63,9.69,5.34,9.69,5.05
	c-0.01-0.95,0-1.9,0.01-2.86c0-0.32,0.05-0.63,0.15-0.93c0.2-0.61,0.63-0.98,1.24-1.14C11.44,0.03,11.79,0,12.15,0
	c1.18,0,2.35,0,3.53,0.01c0.28,0,0.56,0.05,0.83,0.13c0.74,0.2,1.14,0.71,1.28,1.45c0.05,0.29,0.07,0.59,0.08,0.89
	c0.01,0.52,0,1.04,0,1.57C17.87,4.07,17.87,4.1,17.87,4.13z M15.68,2.75c-0.02-0.19-0.03-0.37-0.06-0.55
	c-0.05-0.28-0.22-0.46-0.5-0.52c-0.11-0.02-0.23-0.04-0.35-0.04c-0.64,0-1.27,0-1.91,0c-0.1,0-0.19,0.01-0.28,0.02
	c-0.2,0.03-0.39,0.11-0.49,0.3c-0.13,0.25-0.13,0.51-0.12,0.78C13.21,2.75,14.43,2.75,15.68,2.75z M62.92,4.13
	c-1.96,0-3.92,0-5.87,0c-0.01,0.01-0.02,0.02-0.02,0.02c0.01,0.31-0.01,0.63,0.02,0.94c0.04,0.41,0.29,0.61,0.74,0.63
	c0.35,0.01,0.69,0.01,1.04,0.01c0.41,0,0.82,0,1.23-0.01c0.41-0.01,0.6-0.18,0.65-0.59c0.01-0.12,0.01-0.25,0.02-0.38
	c0.73,0,1.45,0,2.19,0c0,0.21,0,0.41,0,0.61c-0.01,0.34-0.03,0.68-0.14,1c-0.2,0.62-0.65,0.96-1.27,1.08
	c-0.24,0.04-0.48,0.07-0.72,0.07c-1.19,0.01-2.39,0.01-3.58,0c-0.34,0-0.69-0.04-1.03-0.11c-0.78-0.18-1.23-0.7-1.36-1.48
	c-0.05-0.28-0.08-0.58-0.08-0.87c-0.01-0.95,0-1.9,0.01-2.86c0-0.32,0.05-0.63,0.15-0.93c0.2-0.61,0.63-0.98,1.24-1.14
	C56.49,0.03,56.84,0,57.2,0c1.18,0,2.35,0,3.53,0.01c0.28,0,0.56,0.05,0.83,0.13c0.74,0.2,1.14,0.71,1.28,1.45
	c0.05,0.29,0.07,0.59,0.08,0.89c0.01,0.52,0,1.04,0,1.57C62.92,4.07,62.92,4.1,62.92,4.13z M60.73,2.75
	c-0.02-0.19-0.03-0.37-0.06-0.55c-0.05-0.28-0.22-0.46-0.5-0.52c-0.11-0.02-0.23-0.04-0.34-0.04c-0.65,0-1.29,0-1.94,0
	c-0.12,0-0.25,0.02-0.37,0.05c-0.17,0.04-0.31,0.13-0.4,0.29c-0.12,0.24-0.12,0.5-0.11,0.77C58.26,2.75,59.48,2.75,60.73,2.75z
	 M53.37,3.06c0.01-0.56,0.03-1.12-0.12-1.66c-0.17-0.64-0.57-1.08-1.22-1.25c-0.27-0.07-0.56-0.13-0.85-0.13
	C50.08,0,48.98,0,47.88,0c-0.36,0-0.71,0.03-1.06,0.12c-0.61,0.16-1.04,0.53-1.24,1.14c-0.1,0.3-0.15,0.61-0.15,0.93
	c-0.01,0.95-0.01,1.9-0.01,2.86c0,0.29,0.03,0.58,0.08,0.87c0.14,0.78,0.59,1.29,1.37,1.49c0.34,0.08,0.7,0.11,1.05,0.11
	c0.98,0,1.95,0.01,2.93,0c0.3,0,0.59-0.03,0.89-0.07c0.86-0.12,1.42-0.7,1.56-1.55c0.09-0.51,0.07-1.02,0.07-1.53
	c0-0.01-0.01-0.01-0.01-0.02c-0.72,0-1.45,0-2.2,0c0,0.2,0.01,0.4,0,0.6c-0.02,0.46-0.24,0.69-0.7,0.72
	c-0.45,0.02-0.9,0.02-1.36,0.02c-0.24,0-0.49,0-0.73-0.02c-0.39-0.03-0.59-0.23-0.65-0.6c-0.02-0.1-0.02-0.2-0.02-0.3
	c0-0.67,0-1.34,0-2.01c0-0.1,0.01-0.19,0.02-0.29c0.05-0.34,0.22-0.52,0.54-0.59c0.08-0.02,0.16-0.03,0.24-0.03
	c0.62,0,1.23,0,1.85,0c0.1,0,0.2,0.02,0.3,0.04c0.24,0.06,0.39,0.21,0.45,0.45c0.02,0.09,0.04,0.17,0.04,0.26
	c0.01,0.16,0,0.33,0,0.49c0.75,0,1.47,0,2.19,0C53.36,3.08,53.37,3.07,53.37,3.06z M19.24,7.5c0.76,0,1.52,0,2.28,0
	c0-0.05,0-0.09,0-0.14c0-1.32,0-2.63,0-3.95c0-0.18-0.05-0.39,0.02-0.53c0.08-0.15,0.27-0.23,0.42-0.35
	c0.32-0.25,0.68-0.37,1.08-0.39c0.5-0.02,0.99-0.01,1.49-0.02c0.04,0,0.09,0,0.13,0c0-0.71,0-1.42,0-2.12C24.63,0.01,24.6,0,24.58,0
	c-0.39,0-0.77,0-1.16,0.02c-0.34,0.01-0.67,0.06-0.99,0.18c-0.45,0.16-0.82,0.45-1.18,0.76c-0.04,0.03-0.08,0.06-0.13,0.1
	c-0.08-0.33-0.15-0.63-0.22-0.94C20.88,0.03,20.85,0,20.75,0c-0.46,0.01-0.93,0-1.39,0c-0.04,0-0.08,0-0.12,0
	C19.24,2.51,19.24,5.01,19.24,7.5z M6.05,6.71l0.16-0.13l0.23,0.91h1.89c0-2.49,0-4.98,0-7.48C8.29,0.01,8.26,0,8.22,0
	C7.66,0,7.1,0,6.55,0C6.46,0,6.43,0.03,6.42,0.11C6.36,0.38,6.3,0.65,6.23,0.94c-0.04-0.03-0.07-0.05-0.1-0.07
	C5.8,0.6,5.45,0.35,5.04,0.2C4.69,0.07,4.33,0.02,3.97,0.02c-0.6-0.01-1.2-0.01-1.8,0c-0.32,0-0.63,0.06-0.93,0.16
	C0.58,0.41,0.22,0.9,0.09,1.57c-0.05,0.3-0.08,0.61-0.08,0.92C0,3.33-0.01,4.18,0.01,5.02c0.01,0.35,0.04,0.71,0.11,1.05
	c0.17,0.75,0.66,1.2,1.41,1.35C1.78,7.47,2.02,7.5,2.27,7.5c0.6,0.01,1.2,0,1.81-0.01c0.69-0.01,1.31-0.25,1.84-0.68
	C5.95,6.78,5.99,6.75,6.05,6.71z M4.46,5.66c-0.5,0.01-0.99,0.01-1.49-0.01c-0.36-0.01-0.56-0.2-0.63-0.53
	C2.33,5.06,2.32,4.98,2.32,4.91c0-0.38,0-0.76,0-1.15c0,0,0,0,0,0c0-0.4-0.01-0.79,0-1.19c0.01-0.41,0.19-0.62,0.54-0.7
	C2.94,1.86,3.02,1.85,3.1,1.84c0.46,0,0.91-0.01,1.37,0C4.73,1.85,5,1.88,5.24,2.01c0.27,0.16,0.52,0.35,0.78,0.53
	c0.02,0.02,0.03,0.06,0.03,0.1c0,0.74,0,1.48,0,2.23c0,0.03-0.01,0.08-0.03,0.1c-0.2,0.15-0.39,0.31-0.6,0.44
	C5.12,5.59,4.79,5.66,4.46,5.66z M41.77,6.71l0.16-0.13l0.23,0.91h1.89c0-2.49,0-4.98,0-7.48C44.02,0.01,43.98,0,43.95,0
	c-0.56,0-1.12,0-1.68,0c-0.08,0-0.11,0.03-0.13,0.11c-0.06,0.27-0.12,0.54-0.19,0.83c-0.04-0.03-0.07-0.05-0.1-0.07
	c-0.33-0.27-0.68-0.52-1.09-0.67c-0.35-0.12-0.71-0.18-1.07-0.18c-0.6-0.01-1.2-0.01-1.8,0c-0.32,0-0.63,0.06-0.93,0.16
	c-0.67,0.23-1.03,0.72-1.15,1.4c-0.05,0.3-0.08,0.61-0.08,0.92c-0.01,0.84-0.01,1.68,0,2.52c0.01,0.35,0.04,0.71,0.11,1.05
	c0.17,0.75,0.66,1.2,1.41,1.35c0.24,0.05,0.49,0.08,0.73,0.09c0.6,0.01,1.2,0,1.81-0.01c0.69-0.01,1.31-0.25,1.84-0.68
	C41.68,6.78,41.72,6.75,41.77,6.71z M40.19,5.66c-0.5,0.01-0.99,0.01-1.49-0.01c-0.36-0.01-0.56-0.2-0.63-0.53
	c-0.02-0.07-0.03-0.15-0.03-0.22c0-0.38,0-0.76,0-1.15c0,0,0,0,0,0c0-0.4-0.01-0.79,0-1.19c0.01-0.41,0.19-0.62,0.54-0.7
	c0.08-0.02,0.16-0.03,0.24-0.03c0.46,0,0.91-0.01,1.37,0c0.27,0.01,0.54,0.03,0.77,0.17c0.27,0.16,0.52,0.35,0.78,0.53
	c0.02,0.02,0.03,0.06,0.03,0.1c0,0.74,0,1.48,0,2.23c0,0.03-0.01,0.08-0.03,0.1c-0.2,0.15-0.39,0.31-0.6,0.44
	C40.85,5.59,40.52,5.66,40.19,5.66z"/>
</svg>
